<?xml version="1.0" encoding="UTF-8" standalone="no"?>
<!-- Created with Inkscape (http://www.inkscape.org/) -->

<svg
   width="1980"
   height="1260"
   viewBox="0 0 523.875 333.375"
   version="1.1"
   id="svg1"
   xml:space="preserve"
   inkscape:version="1.3.2 (091e20e, 2023-11-25, custom)"
   sodipodi:docname="Pantalla-Fondo.svg"
   inkscape:export-filename="..\..\ema\Mis Estudios\UNRAF\2do\Programacion\Bombastico\public\assets\MarcoMenus.svg"
   inkscape:export-xdpi="96"
   inkscape:export-ydpi="96"
   xmlns:inkscape="http://www.inkscape.org/namespaces/inkscape"
   xmlns:sodipodi="http://sodipodi.sourceforge.net/DTD/sodipodi-0.dtd"
   xmlns="http://www.w3.org/2000/svg"
   xmlns:svg="http://www.w3.org/2000/svg"><sodipodi:namedview
     id="namedview1"
     pagecolor="#ffffff"
     bordercolor="#000000"
     borderopacity="0.25"
     inkscape:showpageshadow="2"
     inkscape:pageopacity="0.0"
     inkscape:pagecheckerboard="0"
     inkscape:deskcolor="#d1d1d1"
     inkscape:document-units="mm"
     inkscape:zoom="0.1767767"
     inkscape:cx="873.98398"
     inkscape:cy="500.6316"
     inkscape:window-width="1366"
     inkscape:window-height="705"
     inkscape:window-x="-8"
     inkscape:window-y="-8"
     inkscape:window-maximized="1"
     inkscape:current-layer="g3"
     showgrid="false" /><defs
     id="defs1" /><g
     id="g3"
     inkscape:label="Pantalla 2"
     style="display:inline"><g
       id="g4"
       style="display:inline"
       inkscape:label="Fondo"><path
         id="path1"
         style="display:inline;fill:#42ded9;fill-opacity:1;stroke-width:1"
         d="m 323.2025,49.675587 -1.87004,0.0073 -1.87004,0.0071 -1.07338,0.235474 c -6.49074,1.423254 -12.51265,6.454745 -16.3521,13.662626 -0.37061,0.695764 -0.71538,1.339276 -0.76615,1.430027 l -0.0924,0.165006 -0.6482,0.08057 c -2.10167,0.26129 -2.57769,0.340517 -3.51878,0.585031 -2.17566,0.565288 -4.30118,1.573735 -6.31461,2.996059 l -1.04501,0.738217 -1.32841,1.320028 c -3.27044,3.24984 -5.44704,7.292043 -6.22179,11.555173 l -0.23891,1.315305 -0.007,2.365048 -0.007,2.365048 0.19358,1.26503 c 1.59309,10.402361 7.33571,16.393941 16.93241,17.666761 l 1.34688,0.17875 1.54239,-0.0631 1.5424,-0.0633 0.53239,0.65764 c 0.29283,0.36176 0.9352,0.98011 1.42745,1.37396 l 0.89506,0.71609 0.99023,0.49136 0.99024,0.49135 1.10003,0.29199 1.10002,0.29219 1.70503,0.008 1.70504,0.008 0.99002,-0.13944 c 3.23211,-0.45504 6.20548,-1.72172 9.14286,-3.89519 l 1.19735,-0.88604 1.32712,-1.33141 c 0.72989,-0.73222 1.45585,-1.50446 1.61307,-1.71621 l 0.28575,-0.38502 0.47719,0.44603 c 3.99206,3.732 8.93868,5.56514 15.74665,5.83572 l 1.78065,0.0709 1.59504,-0.12698 c 0.87726,-0.0697 2.09774,-0.20777 2.71202,-0.3068 l 1.11679,-0.18026 1.02827,0.6656 c 4.72067,3.05534 12.88158,6.31202 17.15347,6.84528 0.44829,0.056 1.36572,0.0784 2.03891,0.0501 l 1.22399,-0.0517 1.12494,-0.27243 c 3.85571,-0.9336 8.22963,-3.75453 13.66113,-8.81113 l 1.2835,-1.19499 1.13654,-0.20453 c 1.43493,-0.25809 3.30868,-0.82071 4.6259,-1.38899 1.24982,-0.53921 1.03896,-0.54726 2.46817,0.0958 2.34354,1.05447 4.59858,1.78905 7.02254,2.28793 l 1.32002,0.27178 2.42005,0.0604 2.42006,0.0604 1.59503,-0.23268 c 1.97824,-0.28845 3.46308,-0.64146 5.42298,-1.28973 l 1.51768,-0.5021 0.94169,0.86132 c 1.69091,1.54668 3.27384,2.63447 5.02766,3.45519 l 0.74208,0.34741 0.68386,0.0548 0.68387,0.055 0.60286,-0.12526 c 0.86139,-0.17902 1.67107,-0.58416 2.17534,-1.08842 l 0.43636,-0.43636 0.34311,-0.88947 0.34289,-0.88947 v -0.47718 -0.47696 l -0.31604,-0.489 c -0.68937,-1.06667 -2.04668,-1.99047 -3.79916,-2.5855 -0.80892,-0.27464 -1.18228,-0.48878 -0.85251,-0.48878 0.0508,0 0.75589,-0.4367 1.56732,-0.97068 5.25027,-3.455067 8.30589,-7.297677 9.5268,-11.980351 l 0.30873,-1.184254 v -2.365048 -2.365048 l -0.19895,-0.935016 c -1.80968,-8.499293 -9.81422,-15.901382 -19.27147,-17.82145 l -1.10003,-0.22344 -0.66001,-0.737788 c -3.17918,-3.553603 -7.06086,-5.606952 -11.91698,-6.304076 l -0.91698,-0.131702 -1.77808,0.05952 c -0.97797,0.03269 -2.08542,0.121491 -2.46087,0.197446 l -0.68257,0.138147 -1.13247,-0.265982 -1.13246,-0.266197 -2.75007,0.0013 -2.75005,0.0013 -1.04502,0.193579 c -2.20042,0.407649 -3.7464,0.885571 -5.66512,1.751442 -0.66551,0.300328 -1.28805,0.570172 -1.3834,0.599641 l -0.17339,0.05371 -0.48212,-0.640463 c -2.26687,-3.010082 -5.49689,-4.671118 -10.12708,-5.208134 l -1.16598,-0.135354 -1.96909,0.05908 -1.9693,0.05908 -1.10002,0.236333 c -0.60501,0.130003 -1.71878,0.441442 -2.47505,0.692026 l -1.37503,0.455693 -1.81503,0.907089 c -0.99827,0.498962 -2.3283,1.231663 -2.95567,1.62812 -1.35951,0.859118 -1.10301,0.838831 -2.20735,0.175101 -1.18718,-0.713521 -2.86741,-1.363257 -4.25937,-1.646811 l -1.11743,-0.227525 h -1.50543 -1.50544 l -1.11721,0.227095 c -1.93467,0.393168 -3.63321,1.07146 -5.63955,2.252254 l -1.06823,0.628645 -0.9999,-0.180043 c -0.54995,-0.09899 -1.24067,-0.216605 -1.53509,-0.26147 l -0.5354,-0.08164 -0.64928,-1.031915 c -2.72242,-4.326239 -6.4022,-6.979598 -10.95575,-7.900183 z m -29.29734,1.702243 c -0.66442,0 -1.16006,0.264841 -1.95662,1.04588 l -0.68237,0.669253 -0.18563,0.638099 -0.18541,0.638099 0.0763,0.511768 c 0.042,0.281533 0.20401,0.784241 0.36009,1.116995 l 0.28381,0.605013 0.72339,0.725112 0.72318,0.725328 0.82502,0.389735 c 1.13739,0.537414 2.26811,0.921993 3.63008,1.234517 0.63525,0.145772 1.3159,0.268418 1.51253,0.272643 l 0.3575,0.0077 v -0.477607 -0.477608 l -0.67054,-1.694937 c -0.36883,-0.932209 -0.8603,-2.090945 -1.09228,-2.574955 l -0.42196,-0.880019 -0.58504,-0.686225 c -0.67227,-0.788423 -1.1707,-1.220326 -1.7936,-1.553996 l -0.43828,-0.234829 z m 135.17345,4.813673 -0.74187,0.11215 c -1.32383,0.20015 -2.31715,0.676272 -4.13755,1.983478 l -0.87143,0.625853 -0.43205,0.570423 c -1.33331,1.760871 -1.06393,3.360358 0.64734,3.844278 l 0.53152,0.150396 0.93503,-0.04984 c 1.1456,-0.0611 2.00539,-0.27936 3.0603,-0.776892 l 0.80525,-0.379851 0.71221,-0.683861 0.71244,-0.684078 0.40477,-0.819216 0.40499,-0.819217 0.0414,-0.73564 0.0417,-0.73564 -0.22902,-0.448603 c -0.27872,-0.54632 -0.68781,-0.852276 -1.36966,-1.023967 z m -68.91964,16.224687 2.51285,0.03223 c 2.72289,0.035 2.61436,0.01629 2.74061,0.474383 0.0477,0.173295 0.2033,0.698363 0.34547,1.166842 0.42915,1.414038 1.02535,3.420152 1.45969,4.911425 0.2258,0.775253 0.54876,1.882539 0.71781,2.460662 1.16676,3.990431 1.79677,6.223669 1.79677,6.368951 v 0.123968 l -1.29059,-0.01931 c -0.70985,-0.01085 -1.70548,-0.03384 -2.21251,-0.05109 l -0.92192,-0.03135 -0.002,-0.209267 c -0.002,-0.115085 -0.13621,-0.805495 -0.29949,-1.534227 l -0.29692,-1.325186 -1.09659,-0.07278 c -0.60309,-0.04013 -1.40437,-0.06128 -1.78065,-0.04729 l -0.68409,0.0256 -0.0734,0.425835 c -0.0405,0.234237 -0.15507,0.926263 -0.25481,1.537881 l -0.18133,1.112047 h -2.19553 c -1.20748,0 -2.19532,-0.02668 -2.19532,-0.05933 0,-0.05705 0.32412,-1.382067 0.5296,-2.164805 0.0547,-0.208204 0.19649,-0.761738 0.31518,-1.230223 0.34388,-1.357293 0.5229,-2.054417 0.63144,-2.460651 0.0556,-0.208216 0.19717,-0.761967 0.31475,-1.23044 0.11759,-0.468474 0.26001,-1.022008 0.31626,-1.230223 0.0563,-0.208204 0.19845,-0.761955 0.31604,-1.230429 0.11758,-0.468473 0.2601,-1.022006 0.31668,-1.230217 0.0566,-0.208211 0.29272,-1.145356 0.52488,-2.082309 0.23216,-0.936949 0.47298,-1.867105 0.53498,-2.067055 z m -18.32441,0.005 3.91368,0.0365 3.91345,0.03629 0.65981,0.198092 c 1.81045,0.543397 2.68626,1.51776 2.83942,3.158914 l 0.0585,0.625634 -0.13385,0.510266 c -0.2526,0.96285 -0.96112,1.862017 -1.7755,2.253543 -0.32209,0.154838 -0.28915,0.212023 0.29219,0.50532 0.28489,0.143731 0.73473,0.47778 0.99968,0.742518 l 0.48191,0.481468 0.16372,0.487705 c 0.09,0.26822 0.19166,0.829878 0.2258,1.248272 l 0.062,0.760773 -0.17876,0.791936 c -0.40187,1.78162 -1.49805,2.825506 -3.43155,3.267838 l -0.68472,0.156628 -2.15987,0.08569 c -1.18789,0.04708 -2.95983,0.08688 -3.93752,0.08851 l -1.77765,0.0033 0.0664,-2.20048 c 0.0365,-1.210222 0.11354,-4.159511 0.17124,-6.553932 0.0577,-2.394431 0.13336,-4.877986 0.16822,-5.51902 z m 34.06096,0.08809 0.94812,0.0651 c 1.17945,0.08075 1.91201,0.246668 2.79196,0.632515 l 0.68493,0.300356 0.58267,0.532609 0.58245,0.532609 0.2763,0.51585 c 0.45141,0.842892 0.52597,1.084792 0.54357,1.762829 l 0.0167,0.645835 -1.00099,-0.0333 c -0.55048,-0.01822 -1.38004,-0.06073 -1.84361,-0.09454 l -0.84285,-0.06145 -0.0653,-0.473311 c -0.0835,-0.604668 -0.30972,-1.076132 -0.65228,-1.359778 l -0.27071,-0.224084 -0.48791,-0.08186 -0.48814,-0.08207 -0.36481,0.137072 -0.36503,0.137074 -0.16543,0.35536 -0.16544,0.355572 0.0642,0.42003 0.064,0.420243 0.26662,0.313892 c 0.2807,0.330594 1.49072,1.068904 3.12733,1.908284 0.53783,0.275845 1.28607,0.723861 1.66271,0.995606 l 0.68473,0.494148 0.43936,0.586975 c 0.48773,0.651502 0.69907,1.215276 0.87786,2.343126 l 0.11989,0.757129 -0.11236,0.799019 -0.11237,0.799019 -0.30315,0.582018 -0.30294,0.581811 -0.45784,0.395106 c -0.53026,0.457703 -1.05424,0.703708 -1.93536,0.908593 l -0.62778,0.14589 -1.11055,-0.01096 c -0.61075,-0.0065 -1.20521,-0.02766 -1.32109,-0.04816 -0.1159,-0.0205 -0.47152,-0.0846 -0.79022,-0.142234 -0.3187,-0.0576 -0.92543,-0.251624 -1.34818,-0.431193 l -0.7685,-0.326576 -0.5526,-0.496295 -0.5528,-0.496513 -0.28489,-0.523163 c -0.36584,-0.671699 -0.49652,-1.307615 -0.49652,-2.415312 v -0.889687 l 1.81741,0.05868 c 0.99957,0.03221 1.86929,0.07256 1.93277,0.08959 l 0.11538,0.03091 0.0707,0.825442 0.0707,0.825658 0.17123,0.324428 c 0.0943,0.178463 0.34159,0.428427 0.54958,0.555378 l 0.37813,0.230744 h 0.66646 0.66625 l 0.29928,-0.294339 c 0.47269,-0.464894 0.56163,-1.204776 0.2286,-1.902692 l -0.19788,-0.414445 -0.52337,-0.421529 c -0.28785,-0.231785 -0.9456,-0.633019 -1.46161,-0.891835 -0.516,-0.258826 -1.34925,-0.717234 -1.85178,-1.018591 l -0.91375,-0.547872 -0.62972,-0.617465 c -1.02844,-1.008221 -1.41145,-1.89588 -1.42702,-3.308024 l -0.01,-0.851661 0.19701,-0.520577 c 0.47689,-1.259065 1.52297,-1.997103 3.2223,-2.273523 z m -37.85238,0.0853 -0.0664,1.268248 c -0.0772,1.476647 -0.22042,5.362824 -0.38522,10.448283 -0.0641,1.978002 -0.12434,3.601313 -0.13384,3.6073 -0.01,0.0065 -0.9299,0.03981 -2.04536,0.07539 l -2.02817,0.06465 v -0.333864 c 0,-0.183702 0.0464,-0.856507 0.10316,-1.495135 0.0567,-0.638627 0.15345,-1.842655 0.21506,-2.675505 0.40509,-5.475662 0.48786,-6.493877 0.58266,-7.16905 l 0.0499,-0.354931 h -0.0935 c -0.0817,0 -0.43193,1.037146 -0.92685,2.744684 -0.083,0.286291 -0.26732,0.914375 -0.40951,1.395864 -0.62832,2.127699 -1.37382,4.699617 -1.93965,6.691448 -0.39411,1.387393 -0.19018,1.255322 -2.00087,1.295542 l -1.5222,0.03395 -0.13063,-0.709859 c -0.0719,-0.390387 -0.30217,-1.604307 -0.51177,-2.697415 -0.20961,-1.093109 -0.59162,-3.158568 -0.84886,-4.590021 -0.51252,-2.851972 -0.66274,-3.578648 -0.77969,-3.771009 -0.0856,-0.140843 -0.18396,2.532077 -0.27114,7.367354 -0.0315,1.743776 -0.0829,3.475023 -0.11429,3.847285 l -0.0572,0.676993 -1.44055,0.05825 c -0.79236,0.032 -1.64562,0.07376 -1.89626,0.09307 l -0.45568,0.03503 -0.052,-0.121604 c -0.10261,-0.240202 0.91135,-14.943779 1.03771,-15.048184 0.0711,-0.05869 5.58774,-0.338539 5.64579,-0.28639 0.0628,0.05638 0.30353,1.264203 1.01967,5.114455 0.40802,2.193701 0.67221,3.472214 0.72812,3.522435 0.0563,0.05065 0.23137,-0.414771 0.48835,-1.298319 0.12868,-0.442452 0.27628,-0.932261 0.32786,-1.088423 0.0516,-0.156161 0.42498,-1.369853 0.82975,-2.697204 0.83616,-2.742077 0.93356,-3.053804 1.08497,-3.469801 l 0.10893,-0.299282 0.42992,-0.05285 c 0.23648,-0.0291 1.56122,-0.08178 2.94384,-0.117093 z m 46.72754,0.755405 1.19907,0.06294 c 1.53586,0.08053 8.98503,0.637022 9.02728,0.674411 0.0563,0.04981 0.33589,2.731953 0.28918,2.773903 -0.0247,0.02216 -0.71438,-0.0111 -1.53273,-0.07412 -1.82634,-0.140659 -1.64958,-0.558644 -1.32797,3.140866 0.45762,5.264063 0.70545,8.814168 0.6194,8.873012 -0.0449,0.0307 -0.91957,0.01247 -1.94373,-0.04046 -2.25228,-0.116191 -1.97394,0.198605 -2.1502,-2.431007 -0.24497,-3.654755 -0.67448,-9.285911 -0.73242,-9.603072 l -0.0541,-0.297133 -0.44516,-0.0535 c -0.24485,-0.02935 -0.95005,-0.08134 -1.56711,-0.115588 l -1.12195,-0.0623 -0.0596,-0.486202 c -0.0328,-0.267419 -0.0911,-0.908258 -0.12977,-1.424013 z m -71.14096,0.197018 0.81922,0.05564 0.81922,0.05564 0.6194,0.224946 c 1.05155,0.381539 1.64385,0.946994 1.9446,1.856719 l 0.16994,0.513701 -4.2e-4,0.905583 c -3.8e-4,0.99644 -0.47909,7.032784 -0.62348,7.861729 -0.35119,2.016204 -1.51496,3.325023 -3.50976,3.947619 l -0.76551,0.238911 -1.63306,0.03569 -1.63285,0.03547 -0.65464,-0.17446 -0.65443,-0.174243 -0.46665,-0.34354 c -0.59726,-0.439631 -0.97145,-1.017224 -1.18574,-1.830712 l -0.17038,-0.646275 0.0598,-1.324958 c 0.18019,-4.001582 0.66793,-7.432787 1.20056,-8.446115 l 0.2864,-0.544857 0.68708,-0.615324 0.6873,-0.615112 0.57945,-0.249866 c 0.89314,-0.38526 1.54593,-0.557658 2.52553,-0.666461 z m 85.07988,0.829526 c 0.2729,0.01493 0.65808,0.07436 1.19091,0.12397 l 1.76755,0.164573 0.0778,0.113223 c 0.14418,0.209545 1.48637,13.090069 1.48891,14.288478 l 8.2e-4,0.402406 -0.55323,-0.01356 c -0.30421,-0.0076 -1.13051,-0.06042 -1.83631,-0.118165 -1.56278,-0.127775 -1.35452,0.177714 -1.55593,-2.28169 -0.25041,-3.057812 -0.6558,-7.321322 -0.96595,-10.156519 -0.24209,-2.212973 -0.43326,-2.567538 0.38544,-2.522749 z m -52.63007,0.659585 -0.0633,1.561732 c -0.0754,1.858768 0.24188,2.08578 1.97875,1.416489 l 0.44023,-0.169514 0.18411,-0.316043 0.18414,-0.315824 0.008,-0.678491 0.008,-0.678489 -0.22022,-0.267914 c -0.1211,-0.147348 -0.35817,-0.329677 -0.5268,-0.405204 l -0.30659,-0.137288 -0.84285,-0.0048 z m 62.62266,0.05972 1.08713,0.128264 1.08735,0.12805 0.69654,0.235471 c 2.15855,0.729845 3.13807,1.935299 3.50975,4.318884 0.18659,1.196533 0.39905,1.077879 -1.52993,0.854663 -0.894,-0.103478 -1.65454,-0.188149 -1.68999,-0.188203 -0.0355,-6.5e-5 -0.0953,-0.266365 -0.133,-0.591693 -0.0919,-0.793368 -0.32489,-1.453005 -0.64797,-1.833511 l -0.26641,-0.313679 -0.42562,-0.102936 -0.4254,-0.102936 -0.35085,0.104021 -0.35106,0.104237 -0.13665,0.296281 -0.13685,0.296497 0.18047,1.600609 c 0.0992,0.880348 0.29938,2.714944 0.44494,4.076749 0.29968,2.803476 0.34198,2.971211 0.84802,3.37033 l 0.36588,0.288536 h 0.52788 0.52789 l 0.2503,-0.224735 0.25008,-0.224507 0.0705,-0.422396 c 0.0388,-0.232274 0.0212,-0.864415 -0.0392,-1.404683 -0.13336,-1.195719 -0.34449,-1.08263 1.65884,-0.886466 l 1.69042,0.165435 0.0804,0.434003 c 0.0442,0.238695 0.0816,1.030218 0.083,1.758961 l 0.002,1.324959 -0.25138,0.499744 -0.25137,0.499518 -0.52272,0.422179 -0.52251,0.422179 -0.54293,0.14781 c -0.29858,0.08135 -0.94586,0.165478 -1.43841,0.186922 l -0.8957,0.03883 -0.79,-0.12784 c -2.27507,-0.367902 -3.59668,-1.459709 -4.21145,-3.479677 l -0.21033,-0.69182 -0.21464,-2.034828 c -0.11804,-1.11913 -0.31054,-2.883525 -0.42776,-3.920978 l -0.21314,-1.886368 0.0616,-0.574284 c 0.17279,-1.607516 0.91656,-2.365636 2.54939,-2.598592 z m -45.93024,0.03418 c -0.0857,0.04277 -0.1901,0.554473 -0.36267,1.657127 -0.0855,0.546553 -0.25171,1.568661 -0.36911,2.271372 -0.38886,2.32768 -0.4162,2.506512 -0.41831,2.721051 l -0.002,0.212922 h 1.26417 1.26438 l -8.4e-4,-0.118382 c -8.2e-4,-0.135704 -0.0888,-0.609113 -0.47158,-2.531557 -0.26354,-1.323614 -0.34723,-1.737625 -0.58762,-2.910337 -0.0614,-0.299308 -0.13867,-0.703938 -0.17188,-0.899141 -0.0486,-0.285629 -0.0932,-0.428711 -0.14458,-0.403055 z m -61.63221,0.04447 c 0.82927,0.0284 1.35701,0.171678 1.87261,0.439795 l 0.44495,0.231393 0.25567,0.399834 c 0.14065,0.21984 0.30622,0.618878 0.36804,0.886892 l 0.11258,0.487273 -0.0958,0.743169 c -0.16606,1.288492 -0.64871,2.161247 -1.60384,2.900446 l -0.52551,0.406712 0.57837,0.345037 0.57858,0.345048 0.29477,0.541212 0.29456,0.540984 -2.2e-4,0.907737 c -4e-4,1.18113 -0.18346,1.960841 -0.68193,2.906032 l -0.40498,0.76829 -0.59792,0.490937 c -0.87422,0.717722 -1.73802,1.052173 -3.30781,1.281138 -0.36562,0.05337 -4.94312,0.429913 -5.22596,0.429913 h -0.14739 v -0.296292 c 0,-0.55592 0.53139,-5.423217 1.01108,-9.26253 0.26338,-2.108142 0.50586,-4.056281 0.53883,-4.329196 0.0801,-0.662167 -0.0168,-0.627743 2.55906,-0.914178 1.72209,-0.191498 2.85301,-0.27805 3.68228,-0.249657 z m 11.68,0.925781 -0.42153,0.124827 -0.42153,0.125043 -0.23654,0.2894 c -0.48331,0.591459 -0.4838,0.594856 -0.84908,4.595821 -0.37332,4.088854 -0.3442,4.701981 0.24321,5.117034 l 0.25867,0.182844 0.43356,-4.23e-4 0.43357,-2.17e-4 0.32807,-0.179818 0.32807,-0.179623 0.2402,-0.446021 0.24041,-0.44602 0.087,-0.864556 c 0.0478,-0.475513 0.20715,-2.291289 0.35408,-4.035054 l 0.26727,-3.170526 -0.10293,-0.320554 c -0.14054,-0.438269 -0.3866,-0.658146 -0.81836,-0.730912 z m 107.95777,0.518427 0.98895,0.131276 0.98895,0.131054 0.79967,0.345478 0.79945,0.345478 0.59663,0.536049 0.59664,0.535832 0.32677,0.581161 c 0.50937,0.906446 0.71345,1.753364 1.13483,4.707545 l 0.39145,2.744676 0.008,1.46677 0.007,1.466986 -0.19014,0.489636 -0.19014,0.489647 -0.45075,0.373184 c -0.68317,0.565682 -1.33452,0.701213 -2.80355,0.583525 h -2.2e-4 c -2.44073,-0.195622 -3.88804,-1.225667 -4.6736,-3.326487 -0.24056,-0.643345 -0.43567,-1.820929 -0.86541,-5.226185 l -0.38113,-3.020336 0.0365,-0.772162 0.0363,-0.772163 0.31776,-0.55797 0.31776,-0.557744 0.4862,-0.270064 0.48621,-0.270062 0.61833,-0.07756 z m -121.6163,1.162119 c -1.00429,0 -1.27578,0.598852 -1.28136,2.82569 l -8.3e-4,0.365017 0.17961,-0.06183 c 0.0988,-0.03406 0.37845,-0.08634 0.62155,-0.116234 0.2431,-0.02994 0.62449,-0.145532 0.84758,-0.256744 l 0.40563,-0.202173 0.20132,-0.36954 0.2013,-0.36954 0.0477,-0.670755 0.0479,-0.670539 -0.21356,-0.236764 -0.21335,-0.236547 z m 122.42178,1.372447 -0.2185,0.249227 -0.21829,0.249443 v 0.372762 c 0,0.205069 0.0938,1.061793 0.2084,1.903766 0.11461,0.841972 0.3258,2.464274 0.46945,3.605152 l 0.26125,2.074354 0.29434,0.528315 0.29434,0.528315 0.36868,0.165436 c 0.45315,0.203355 0.62481,0.207217 0.9217,0.02039 l 0.23118,-0.145456 0.1076,-0.359008 0.1076,-0.358801 -0.10381,-0.978414 c -0.58097,-5.477408 -0.92011,-7.105427 -1.58471,-7.607775 l -0.32808,-0.247719 h -0.40563 z m -75.6386,1.868112 -0.0447,1.881422 c -0.0537,2.263901 -0.0238,2.294142 1.89884,1.923745 l 0.51756,-0.09968 0.2634,-0.255236 c 0.37085,-0.359344 0.50275,-0.786209 0.50275,-1.627476 v -0.729211 l -0.2374,-0.316467 c -0.13057,-0.174058 -0.39563,-0.399411 -0.58891,-0.500818 l -0.35127,-0.184342 -0.98014,-0.04599 z m -47.74936,2.50341 -0.68494,0.02918 -0.18326,1.750793 c -0.10088,0.962979 -0.16049,1.807175 -0.13235,1.875836 l 0.0513,0.124825 0.18476,-0.04859 c 0.10164,-0.02668 0.42208,-0.07777 0.7118,-0.113653 0.28973,-0.03579 0.7039,-0.145249 0.92041,-0.243218 l 0.3936,-0.178104 0.22151,-0.389943 0.22129,-0.389736 0.0512,-0.862831 0.0509,-0.862831 -0.21335,-0.302506 -0.21313,-0.302507 -0.34762,-0.05803 c -0.19109,-0.03189 -0.65548,-0.04491 -1.03214,-0.02874 z m -2.8231,27.41936 -0.57794,0.29821 c -0.8211,0.42364 -1.28988,0.81806 -1.84899,1.55528 l -0.48814,0.64326 v 0.46944 0.46923 l 0.22173,0.28188 c 0.21173,0.26917 0.61095,0.45149 1.2083,0.55173 0.95019,0.15946 2.28151,-0.065 3.34562,-0.56398 l 0.66947,-0.3141 0.64905,-0.59406 c 0.35698,-0.32679 0.71284,-0.74645 0.79064,-0.93265 l 0.14137,-0.3386 -0.0962,-0.42733 -0.0964,-0.42733 -0.25416,-0.19574 c -0.13977,-0.1076 -0.42742,-0.2587 -0.63918,-0.33558 l -0.38501,-0.13966 h -1.32002 z"
         inkscape:label="Bombastico" /></g></g></svg>
