<?xml version="1.0" encoding="UTF-8" standalone="no"?>
<!-- Created with Inkscape (http://www.inkscape.org/) -->

<svg
   width="60"
   height="60"
   viewBox="0 0 15.875 15.875"
   version="1.1"
   id="svg1"
   xml:space="preserve"
   inkscape:version="1.3.2 (091e20e, 2023-11-25, custom)"
   sodipodi:docname="items.svg"
   inkscape:export-filename="..\Items\Roca_Dos.svg"
   inkscape:export-xdpi="96"
   inkscape:export-ydpi="96"
   xmlns:inkscape="http://www.inkscape.org/namespaces/inkscape"
   xmlns:sodipodi="http://sodipodi.sourceforge.net/DTD/sodipodi-0.dtd"
   xmlns="http://www.w3.org/2000/svg"
   xmlns:svg="http://www.w3.org/2000/svg"><sodipodi:namedview
     id="namedview1"
     pagecolor="#ffffff"
     bordercolor="#000000"
     borderopacity="0.25"
     inkscape:showpageshadow="2"
     inkscape:pageopacity="0.0"
     inkscape:pagecheckerboard="0"
     inkscape:deskcolor="#d1d1d1"
     inkscape:document-units="mm"
     inkscape:zoom="5.6568543"
     inkscape:cx="18.915106"
     inkscape:cy="32.968854"
     inkscape:window-width="1366"
     inkscape:window-height="705"
     inkscape:window-x="-8"
     inkscape:window-y="-8"
     inkscape:window-maximized="1"
     inkscape:current-layer="svg1" /><defs
     id="defs1" /><g
     id="g165"
     inkscape:label="Items"
     style="display:inline"
     sodipodi:insensitive="true"><path
       id="path2-1"
       style="display:inline;fill:#42ded9;fill-opacity:1;fill-rule:evenodd;stroke-width:0.38169"
       d="m 11.329202,0.17284783 a 2.525697,0.95882946 36.784583 0 0 -0.497989,0.18364844 2.525697,0.95882946 36.784583 0 0 -0.02197,0.0409794 l -0.0022,-0.001518 -0.50751,0.68071333 A 7.2964587,7.2964587 0 0 0 7.9978005,0.70178569 7.2964587,7.2964587 0 0 0 0.70152579,7.9983962 7.2964587,7.2964587 0 0 0 6.1816045,15.050648 7.7651621,7.765162 0 0 1 6.1237498,14.24472 7.7651621,7.765162 0 0 1 13.88872,6.4791228 7.7651621,7.765162 0 0 1 15.141017,6.5929544 7.2964587,7.2964587 0 0 0 14.244636,4.2282911 l 0.62981,-0.8446311 0.0022,-0.00228 a 2.525697,0.95882946 36.784583 0 0 7.32e-4,-7.589e-4 2.525697,0.95882946 36.784583 0 0 0,-7.589e-4 2.525697,0.95882946 36.784583 0 0 7.33e-4,0 2.525697,0.95882946 36.784583 0 0 0,-7.589e-4 2.525697,0.95882946 36.784583 0 0 7.32e-4,-7.588e-4 2.525697,0.95882946 36.784583 0 0 0,-7.589e-4 2.525697,0.95882946 36.784583 0 0 7.32e-4,0 2.525697,0.95882946 36.784583 0 0 0,-7.589e-4 2.525697,0.95882946 36.784583 0 0 7.33e-4,0 2.525697,0.95882946 36.784583 0 0 0,-7.589e-4 2.525697,0.95882946 36.784583 0 0 0,-7.588e-4 2.525697,0.95882946 36.784583 0 0 7.32e-4,0 2.525697,0.95882946 36.784583 0 0 0,-7.589e-4 2.525697,0.95882946 36.784583 0 0 7.32e-4,-7.589e-4 l 0.0095,-0.012901 -7.32e-4,-7.589e-4 A 2.525697,0.95882946 36.784583 0 0 13.42808,1.1009554 2.525697,0.95882946 36.784583 0 0 11.329202,0.17284783 Z M 18.065239,7.1226512 A 2.525697,0.95882946 36.784583 0 0 17.56725,7.3062996 2.525697,0.95882946 36.784583 0 0 17.54528,7.347279 l -0.0022,-0.00152 -0.50751,0.6807134 A 7.2964587,7.2964587 0 0 0 14.733837,7.651589 7.2964587,7.2964587 0 0 0 7.4375626,14.9482 7.2964587,7.2964587 0 0 0 14.733837,22.244051 7.2964587,7.2964587 0 0 0 22.030844,14.9482 7.2964587,7.2964587 0 0 0 20.980673,11.178094 l 0.62981,-0.844631 0.0022,-0.0023 a 2.525697,0.95882946 36.784583 0 0 7.32e-4,-7.59e-4 2.525697,0.95882946 36.784583 0 0 0,-7.59e-4 2.525697,0.95882946 36.784583 0 0 7.33e-4,0 2.525697,0.95882946 36.784583 0 0 0,-7.59e-4 2.525697,0.95882946 36.784583 0 0 7.32e-4,-7.59e-4 2.525697,0.95882946 36.784583 0 0 0,-7.59e-4 2.525697,0.95882946 36.784583 0 0 7.32e-4,0 2.525697,0.95882946 36.784583 0 0 0,-7.59e-4 2.525697,0.95882946 36.784583 0 0 7.33e-4,0 2.525697,0.95882946 36.784583 0 0 0,-7.58e-4 2.525697,0.95882946 36.784583 0 0 0,-7.59e-4 2.525697,0.95882946 36.784583 0 0 7.32e-4,0 2.525697,0.95882946 36.784583 0 0 0,-7.59e-4 2.525697,0.95882946 36.784583 0 0 7.32e-4,-7.59e-4 l 0.0095,-0.0129 -7.33e-4,-7.59e-4 A 2.525697,0.95882946 36.784583 0 0 20.164117,8.0507588 2.525697,0.95882946 36.784583 0 0 18.065239,7.1226512 Z"
       transform="matrix(0.70563721,0,0,0.6809585,-0.12088533,0.30397749)"
       inkscape:label="Doble Bomba"
       sodipodi:insensitive="true" /></g></svg>
