<?xml version="1.0" encoding="UTF-8" standalone="no"?>
<!-- Created with Inkscape (http://www.inkscape.org/) -->

<svg
   width="47.625mm"
   height="47.625015mm"
   viewBox="0 0 47.625 47.625015"
   version="1.1"
   id="svg1"
   xml:space="preserve"
   inkscape:version="1.3.2 (091e20e, 2023-11-25, custom)"
   sodipodi:docname="Pantalla-Fondo.svg"
   inkscape:export-filename="Fin del juego.png"
   inkscape:export-xdpi="96"
   inkscape:export-ydpi="96"
   xmlns:inkscape="http://www.inkscape.org/namespaces/inkscape"
   xmlns:sodipodi="http://sodipodi.sourceforge.net/DTD/sodipodi-0.dtd"
   xmlns="http://www.w3.org/2000/svg"
   xmlns:svg="http://www.w3.org/2000/svg"><sodipodi:namedview
     id="namedview1"
     pagecolor="#ffffff"
     bordercolor="#000000"
     borderopacity="0.25"
     inkscape:showpageshadow="2"
     inkscape:pageopacity="0.0"
     inkscape:pagecheckerboard="0"
     inkscape:deskcolor="#d1d1d1"
     inkscape:document-units="mm"
     inkscape:zoom="0.32480572"
     inkscape:cx="1134.5244"
     inkscape:cy="598.8195"
     inkscape:window-width="1366"
     inkscape:window-height="705"
     inkscape:window-x="-8"
     inkscape:window-y="-8"
     inkscape:window-maximized="1"
     inkscape:current-layer="g16"
     showgrid="false" /><defs
     id="defs1" /><path
     style="fill:#42ded9;fill-opacity:1;stroke-width:1"
     d="m 24.063395,47.246703 c -0.11893,-0.3722 -1.05636,-3.23786 -1.38212,-4.2247 -0.86427,-2.61829 -1.27575,-3.87626 -1.55723,-4.76065 -0.18209,-0.57224 -0.45858,-1.41852 -0.6144,-1.88061 -0.15583,-0.4621 -0.28331,-0.85925 -0.28331,-0.88252 0,-0.0233 -0.19201,0.14199 -0.42669,0.36727 -0.23468,0.2253 -1.3326,1.26086 -2.43981,2.30126 -1.10719,1.0404 -2.35334,2.21415 -2.76924,2.60831 -0.44683,0.42348 -0.7643,0.67958 -0.77608,0.62606 -0.0114,-0.0498 0.0908,-0.71281 0.22637,-1.47331 0.1355,-0.76051 0.35648,-2.00697 0.49105,-2.76994 0.13465,-0.76296 0.30165,-1.69934 0.37129,-2.08083 0.0696,-0.38149 0.11796,-0.70199 0.10733,-0.71227 -0.0114,-0.01 -1.16575,0.28397 -2.56705,0.65382 -1.4013,0.36986 -2.8587802,0.75151 -3.2388302,0.84809 -0.7742,0.19675 -6.02965,1.58067 -6.56141,1.72782 -0.18825,0.0521 -0.35176,0.0862 -0.36338,0.0755 -0.0114,-0.01 0.19102,-0.24365 0.45027,-0.5179 0.25926,-0.27424 1.02524,-1.09451 1.70217,-1.82281 0.67696,-0.72828 1.98103,-2.13023 2.89793,-3.11546 0.91691,-0.98523 1.75948,-1.89321 1.87239,-2.01776 0.11283,-0.12452 0.46604,-0.50482 0.78474,-0.84505 0.3187202,-0.3402 0.5684102,-0.62768 0.5548502,-0.63884 -0.0139,-0.0115 -0.7553902,-0.29735 -1.6485302,-0.636 -0.89312,-0.33863 -2.27687,-0.86338 -3.07501,-1.16612 -0.79812,-0.30272 -2.45188,-0.92983 -3.67504,-1.39357 -1.22316,-0.46377 -2.18713,-0.86179 -2.14214,-0.88453 0.0449,-0.0228 0.96802,-0.28737 2.05116,-0.58811 1.08319,-0.30071 2.51356,-0.6988 3.17867,-0.88461 0.6651,-0.18584 1.94003,-0.54162 2.83313,-0.79064 0.89315,-0.249 1.63456,-0.46162 1.64754,-0.47246 0.0126,-0.0115 -0.12531,-0.21338 -0.30724,-0.45005 -0.18199,-0.23667 -0.4592,-0.60057 -0.61601,-0.80866 -0.15683,-0.20809 -0.46794,-0.61951 -0.69141,-0.91428 -0.22343,-0.29481 -0.60987,-0.80727 -0.85874,-1.13884 -0.24888,-0.33158 -0.71051,-0.94163 -1.02586,-1.35569 -2.77836,-3.64791 -4.71165,-6.22926 -4.68417,-6.25431 0.018,-0.0165 2.85664,0.70741 6.30767,1.60893 3.4510402,0.90154 6.2831202,1.63236 6.2935402,1.62408 0.0176,-0.014 -0.33728,-0.55511 -1.88278,-2.87052 -0.33566,-0.50287 -0.71385,-1.07036 -0.84043,-1.2611 -0.12656,-0.1907499 -0.50781,-0.7582399 -0.84717,-1.2611099 -0.33938,-0.50287 -0.5959402,-0.92156 -0.5701202,-0.93042 0.0258,-0.009 1.3679702,0.46263 2.9825802,1.04777 4.44612,1.6113199 5.75959,2.0823699 5.86294,2.1026499 0.096,0.0188 0.0978,0.009 0.69973,-3.3234699 0.91018,-5.04093 1.39693,-7.69512005 1.41411,-7.71080004824 0.0197,-0.0180000018 0.36869,0.72950999824 0.78852,1.68901004824 0.11387,0.26012 0.60937,1.38093 1.10125,2.4907 0.49188,1.10977 1.28981,2.91157 1.77319,4.00402 0.48338,1.09242 0.90124,2.0077599 0.92854,2.0340699 0.0382,0.0367 2.21097,-3.5296999 3.6211,-5.9434899 0.2749,-0.47054 0.46232,-0.73009 0.4626,-0.6406 1.4e-4,0.0465 0.1101,0.75589 0.2443,1.57639 0.13423,0.82051 0.40684,2.49302 0.60576,3.7167 0.19894,1.2236999 0.37963,2.2309999 0.40156,2.2384699 0.0384,0.0131 1.96583,-1.16283 8.4904,-5.1800399 1.69041,-1.04082 3.08405,-1.88272 3.09698,-1.87094 0.0126,0.0115 -0.14476,0.27252 -0.35036,0.57939 -0.20559,0.30689 -0.54639,0.82754 -0.75731,1.15699 -0.21091,0.32945 -0.87894,1.36515 -1.48449,2.30152 -3.7656,5.8228199 -4.3588,6.7466199 -4.34259,6.7627799 0.0185,0.0183 0.64643,-0.0671 6.84518,-0.93021 2.50841,-0.34927 4.71618,-0.65058 4.9062,-0.66956 l 0.34552,-0.0345 -1.14247,1.02988 c -1.18684,1.06992 -6.68516,5.93679 -7.90234,6.99478 l -0.69626,0.6052 1.10451,0.23745 c 0.60748,0.13058 1.80416,0.39138 2.65928,0.57953 0.85515,0.18815 2.1456,0.4706 2.86771,0.62767 0.72211,0.15706 1.36588,0.30493 1.43063,0.32859 0.0788,0.0288 -0.43451,0.2451 -1.55478,0.65509 -4.20044,1.53722 -6.85902,2.524 -6.90295,2.56216 -0.0416,0.0361 0.44966,0.59069 1.7754,2.00373 0.19002,0.20253 1.07626,1.14996 1.9694,2.10537 1.42588,1.52531 1.98477,2.12529 3.39968,3.64971 0.17858,0.1924 0.31493,0.35871 0.30301,0.36959 -0.0262,0.024 -6.29567,-0.34134 -9.5637,-0.55733 -0.58217,-0.0385 -1.07528,-0.0546 -1.09584,-0.0359 -0.0205,0.0187 0.15011,0.46845 0.37922,0.99936 0.2291,0.5309 1.10558,2.56845 1.94772,4.5279 0.84212,1.95944 1.66863,3.88085 1.83669,4.26982 0.16807,0.38896 0.30556,0.72441 0.30556,0.74547 0,0.0793 -1.18902,-0.89619 -3.31436,-2.71904 -0.55847,-0.47901 -3.95171,-3.34779 -4.87079,-4.11801 -0.3059,-0.25633 -0.93299,-0.78837 -1.39355,-1.18229 -0.46056,-0.39391 -0.85433,-0.71621 -0.87503,-0.71621 -0.0356,0 -0.43827,1.11151 -2.39802,6.62079 -0.46262,1.30053 -1.03651,2.9037 -1.27532,3.56261 l -0.43419,1.19807 z"
     id="path6" /></svg>
