<?xml version="1.0" encoding="UTF-8" standalone="no"?>
<!-- Created with Inkscape (http://www.inkscape.org/) -->

<svg
   width="157.23328"
   height="166.66663"
   viewBox="0 0 41.601304 44.097211"
   version="1.1"
   id="svg1"
   xml:space="preserve"
   inkscape:version="1.3.2 (091e20e, 2023-11-25, custom)"
   sodipodi:docname="Pantalla-Fondo.svg"
   inkscape:export-filename="..\..\ema\Mis Estudios\UNRAF\2do\Programacion\Bombastico\public\assets\BombasticoLogo.svg"
   inkscape:export-xdpi="96"
   inkscape:export-ydpi="96"
   xmlns:inkscape="http://www.inkscape.org/namespaces/inkscape"
   xmlns:sodipodi="http://sodipodi.sourceforge.net/DTD/sodipodi-0.dtd"
   xmlns="http://www.w3.org/2000/svg"
   xmlns:svg="http://www.w3.org/2000/svg"><sodipodi:namedview
     id="namedview1"
     pagecolor="#ffffff"
     bordercolor="#000000"
     borderopacity="0.25"
     inkscape:showpageshadow="2"
     inkscape:pageopacity="0.0"
     inkscape:pagecheckerboard="0"
     inkscape:deskcolor="#d1d1d1"
     inkscape:document-units="mm"
     inkscape:zoom="0.1767767"
     inkscape:cx="873.98398"
     inkscape:cy="500.6316"
     inkscape:window-width="1366"
     inkscape:window-height="705"
     inkscape:window-x="-8"
     inkscape:window-y="-8"
     inkscape:window-maximized="1"
     inkscape:current-layer="g3"
     showgrid="false" /><defs
     id="defs1" /><g
     id="g3"
     inkscape:label="Pantalla 2"
     style="display:inline"
     transform="translate(-333.1788,-209.99117)"><path
       style="display:inline;fill:#42ded9;fill-opacity:1"
       d="m 347.71118,251.88333 c -1.17468,-1.21268 -2.63101,-2.85321 -3.23629,-3.64564 l -1.10051,-1.44078 -0.86788,-5.262 c -1.36586,-8.2812 -1.37627,-8.41872 -0.77231,-10.19764 0.30164,-0.88847 0.54026,-2.04642 0.53026,-2.57322 l -0.0182,-0.95781 -0.54452,1.41111 c -0.29949,0.77612 -0.69645,1.82112 -0.88213,2.32225 -0.60218,1.62519 -4.51034,5.05117 -5.09506,4.46645 -0.0784,-0.0784 0.54728,-0.89382 1.39035,-1.81209 1.20947,-1.31736 1.65289,-2.16398 2.10183,-4.01299 0.31294,-1.28886 0.50634,-2.40602 0.42979,-2.48258 -0.26551,-0.26551 -0.89169,0.32855 -0.89169,0.84596 0,0.93612 -1.75025,3.9992 -2.60527,4.55943 -0.94229,0.61741 -3.15418,1.32493 -2.95857,0.94636 1.84301,-3.56689 2.44134,-5.29947 3.06996,-8.88973 0.79092,-4.51719 2.02127,-7.32981 3.6193,-8.27378 1.09538,-0.64707 4.99887,-1.47133 9.37513,-1.97968 l 2.91583,-0.33869 1.4939,0.75735 c 0.82164,0.41655 1.58677,0.90147 1.70029,1.07762 0.11352,0.17614 0.0833,1.06762 -0.0672,1.98108 -0.15046,0.91345 -0.28458,3.0102 -0.29804,4.65943 -0.0195,2.39043 -0.19427,3.35637 -0.8616,4.7625 -1.03805,2.18729 -3.5479,4.6576 -5.3678,5.28325 -0.7551,0.2596 -1.37291,0.68284 -1.37291,0.94054 0,0.35941 0.65734,0.44363 2.82222,0.36156 3.49831,-0.13261 5.14859,-0.58204 7.40834,-2.01758 2.16606,-1.37603 3.02556,-2.3029 4.20269,-4.53211 1.2755,-2.41553 1.20594,-3.76485 -0.0746,-1.44677 -1.5061,2.72643 -2.39776,3.78083 -4.28641,5.0688 -1.55575,1.06095 -4.78915,2.14265 -6.44955,2.15764 -0.41626,0.004 0.0608,-0.6963 1.49884,-2.19935 3.02665,-3.16353 3.48187,-4.31561 3.54062,-8.96082 0.0266,-2.10506 0.19445,-4.61617 0.37294,-5.58025 0.38072,-2.05641 1.8499,-4.34268 3.1209,-4.85658 1.29067,-0.52185 11.13961,-2.01574 13.35319,-2.02542 l 1.87309,-0.008 -1.43211,1.76388 c -3.63313,4.47482 -4.16487,5.16119 -4.52853,5.84539 l -0.38806,0.73011 2.41054,-0.51757 c 1.32579,-0.28466 2.66431,-0.42018 2.97448,-0.30115 l 0.56395,0.2164 -0.86822,1.27941 c -1.69865,2.50309 -3.04092,7.86741 -4.97034,19.8637 l -1.31973,8.20546 -3.33343,3.50579 -3.33343,3.5058 h -5.35417 -5.35417 z m 2.83653,-10.34395 c 0.66519,-0.66519 0.75701,-3.688 0.13103,-4.31397 -0.64809,-0.64809 -1.97826,-0.50372 -2.38647,0.25903 -0.55775,1.04216 -0.43651,3.24022 0.21865,3.96416 0.71595,0.79112 1.30997,0.8176 2.03679,0.0908 z m 11.55089,-0.0295 c 0.72279,-0.65411 0.87936,-2.90546 0.27995,-4.02546 -0.40821,-0.76275 -1.73838,-0.90712 -2.38647,-0.25903 -0.62597,0.62597 -0.53416,3.64878 0.13103,4.31397 0.70635,0.70635 1.17006,0.69943 1.97549,-0.0295 z"
       id="path217"
       inkscape:export-filename="..\..\ema\Mis Estudios\UNRAF\2do\Programacion\Bombastico\public\assets\LogoCreador.svg"
       inkscape:export-xdpi="96"
       inkscape:export-ydpi="96" /></g></svg>
