<?xml version="1.0" encoding="UTF-8" standalone="no"?>
<!-- Created with Inkscape (http://www.inkscape.org/) -->

<svg
   width="1980"
   height="1260"
   viewBox="0 0 523.875 333.375"
   version="1.1"
   id="svg1"
   xml:space="preserve"
   inkscape:version="1.3.2 (091e20e, 2023-11-25, custom)"
   sodipodi:docname="Pantalla-Fondo.svg"
   inkscape:export-filename="..\..\ema\Mis Estudios\UNRAF\2do\Programacion\Bombastico\public\assets\Mensaje_2.svg"
   inkscape:export-xdpi="96"
   inkscape:export-ydpi="96"
   xmlns:inkscape="http://www.inkscape.org/namespaces/inkscape"
   xmlns:sodipodi="http://sodipodi.sourceforge.net/DTD/sodipodi-0.dtd"
   xmlns="http://www.w3.org/2000/svg"
   xmlns:svg="http://www.w3.org/2000/svg"><sodipodi:namedview
     id="namedview1"
     pagecolor="#ffffff"
     bordercolor="#000000"
     borderopacity="0.25"
     inkscape:showpageshadow="2"
     inkscape:pageopacity="0.0"
     inkscape:pagecheckerboard="0"
     inkscape:deskcolor="#d1d1d1"
     inkscape:document-units="mm"
     inkscape:zoom="0.1767767"
     inkscape:cx="873.98398"
     inkscape:cy="500.6316"
     inkscape:window-width="1366"
     inkscape:window-height="705"
     inkscape:window-x="-8"
     inkscape:window-y="-8"
     inkscape:window-maximized="1"
     inkscape:current-layer="g3"
     showgrid="false" /><defs
     id="defs1" /><g
     id="g3"
     inkscape:label="Pantalla 2"
     style="display:inline"><g
       id="g12"
       style="display:inline"
       inkscape:label="Marco"><path
         id="rect5"
         style="fill:#42ded9;fill-opacity:1;stroke:#191919;stroke-width:0"
         d="M 264.58333,137.05417 V 262.99583 H 454.025 V 137.05417 Z m 3.04633,3.175 h 183.3485 v 119.59166 h -183.3485 z"
         sodipodi:nodetypes="cccccccccc" /><rect
         style="fill:#42ded9;fill-opacity:1;stroke:#191919;stroke-width:0"
         id="rect10"
         width="188.39107"
         height="3.1910498"
         x="264.94977"
         y="152.09003" /><rect
         style="display:none;fill:#42ded9;fill-opacity:1;stroke:#191919;stroke-width:0"
         id="rect10-2"
         width="12.972318"
         height="3.1910498"
         x="139.70416"
         y="-435.25146"
         transform="rotate(90)" /><path
         style="display:none;fill:#42ded9;fill-opacity:1;stroke-width:0.999996"
         d="m 439.02809,150.36114 -1.07815,-1.07815 1.61461,-1.61471 1.61461,-1.61471 -1.61461,-1.6147 -1.61461,-1.61471 1.07815,-1.07815 1.07816,-1.07815 1.6147,1.61461 1.61471,1.6146 1.6147,-1.6146 1.61471,-1.61461 1.07816,1.07815 1.07814,1.07815 -1.6146,1.61471 -1.61461,1.6147 1.61461,1.61471 1.6146,1.61471 -1.07814,1.07815 -1.07816,1.07815 -1.61471,-1.61461 -1.6147,-1.61461 -1.61471,1.61461 -1.6147,1.61461 z"
         id="path10" /><path
         id="rect32-6"
         style="display:inline;fill:#42ded9;fill-opacity:1;stroke:#191919;stroke-width:0"
         d="m 427.81292,138.98583 v 14.55209 h 24.47396 v -14.55209 z m 18.86862,3.57033 0.19069,0.0103 0.19068,0.0103 0.13746,0.0455 c 0.16347,0.0544 0.31571,0.15011 0.4408,0.27802 l 0.091,0.0935 0.0708,0.14779 c 0.039,0.0815 0.0813,0.19872 0.0941,0.26045 l 0.0232,0.11214 v 2.43344 2.43293 l -0.0232,0.11214 c -0.0133,0.0617 -0.0551,0.17893 -0.0941,0.26045 l -0.0708,0.14831 -0.091,0.0935 c -0.1226,0.12524 -0.27456,0.22191 -0.4408,0.28112 l -0.13746,0.0491 -10.37611,0.003 -3.56154,0.003 -0.13022,-0.0253 c -0.0714,-0.0156 -0.18417,-0.0538 -0.25063,-0.0853 l -0.12041,-0.0574 -0.13694,-0.12765 -0.13643,-0.12764 -0.0713,-0.15037 c -0.0393,-0.0827 -0.0818,-0.20133 -0.0946,-0.26304 l -0.0233,-0.11214 v -2.43292 -2.43345 l 0.0233,-0.11213 c 0.0132,-0.0617 0.0553,-0.17976 0.0946,-0.26252 l 0.0713,-0.15038 0.13643,-0.12764 0.13694,-0.12816 0.11989,-0.0568 c 0.0661,-0.0313 0.18846,-0.0711 0.27182,-0.0889 l 0.15141,-0.0326 0.19069,0.0103 0.19068,0.0103 0.13746,0.046 c 0.16348,0.0543 0.31573,0.15011 0.4408,0.27802 l 0.091,0.093 0.0708,0.14832 c 0.039,0.0815 0.0818,0.19872 0.0946,0.26044 l 0.0233,0.11214 v 1.77767 1.77767 h 2.22725 9.04183 v -1.77767 -1.77767 l 0.0238,-0.11214 c 0.0132,-0.0617 0.0553,-0.18024 0.0946,-0.26303 l 0.0713,-0.15038 0.13643,-0.12764 0.13642,-0.12764 0.12041,-0.0568 c 0.0661,-0.0313 0.18847,-0.0716 0.27182,-0.0894 z"
         sodipodi:nodetypes="cccccccccccsscccccccccccccccccsccccccccscccccsccsccccccccscccccc" /></g></g></svg>
