<?xml version="1.0" encoding="UTF-8" standalone="no"?>
<!-- Created with Inkscape (http://www.inkscape.org/) -->

<svg
   width="225.37436mm"
   height="5.0270834mm"
   viewBox="0 0 225.37436 5.0270834"
   version="1.1"
   id="svg1"
   xml:space="preserve"
   inkscape:version="1.3.2 (091e20e, 2023-11-25, custom)"
   sodipodi:docname="Pantalla-Fondo.svg"
   inkscape:export-filename="Fin del juego.png"
   inkscape:export-xdpi="96"
   inkscape:export-ydpi="96"
   xmlns:inkscape="http://www.inkscape.org/namespaces/inkscape"
   xmlns:sodipodi="http://sodipodi.sourceforge.net/DTD/sodipodi-0.dtd"
   xmlns="http://www.w3.org/2000/svg"
   xmlns:svg="http://www.w3.org/2000/svg"><sodipodi:namedview
     id="namedview1"
     pagecolor="#ffffff"
     bordercolor="#000000"
     borderopacity="0.25"
     inkscape:showpageshadow="2"
     inkscape:pageopacity="0.0"
     inkscape:pagecheckerboard="0"
     inkscape:deskcolor="#d1d1d1"
     inkscape:document-units="mm"
     inkscape:zoom="0.32480572"
     inkscape:cx="1134.5244"
     inkscape:cy="598.8195"
     inkscape:window-width="1366"
     inkscape:window-height="705"
     inkscape:window-x="-8"
     inkscape:window-y="-8"
     inkscape:window-maximized="1"
     inkscape:current-layer="g16"
     showgrid="false"><inkscape:page
       x="0"
       y="0"
       width="225.37436"
       height="5.0270834"
       id="page2"
       margin="0"
       bleed="0" /></sodipodi:namedview><defs
     id="defs1" /><g
     id="g2"
     inkscape:label="Pantalla"
     sodipodi:insensitive="true"
     style="display:inline"
     transform="translate(-245.28735,-37.570831)"><path
       id="rect16-5"
       style="display:inline;fill:#42ded9;fill-opacity:1;stroke:#191919;stroke-width:0"
       d="m 245.28735,37.570833 v 5.027084 h 0.99477 l 3.76928,-5.027084 z m 8.50543,0 -3.76928,5.027084 h 8.52609 l 3.76928,-5.027084 z m 12.26747,0 -3.76928,5.027084 h 7.74216 l 3.76928,-5.027084 z m 11.48353,0 -3.76928,5.027084 h 8.52661 l 3.76928,-5.027084 z m 12.26799,0 -3.76928,5.027084 h 7.56078 l 3.76928,-5.027084 z m 11.30215,0 -3.76928,5.027084 h 8.5261 l 3.76927,-5.027084 z m 12.26747,0 -3.76928,5.027084 h 7.74216 l 3.76928,-5.027084 z m 11.48354,0 -3.76928,5.027084 h 8.52609 l 3.76928,-5.027084 z m 12.26798,0 -3.76928,5.027084 h 9.11056 l 3.76928,-5.027084 z m 12.85193,0 -3.76928,5.027084 h 8.52609 l 3.76928,-5.027084 z m 12.26747,0 -3.76928,5.027084 h 7.74216 l 3.7698,-5.027084 z m 11.48405,0 -3.7698,5.027084 h 8.5261 l 3.7698,-5.027084 z m 12.26747,0 -3.76928,5.027084 h 7.56026 l 3.76928,-5.027084 z m 11.30163,0 -3.76927,5.027084 h 8.52661 l 3.76928,-5.027084 z m 12.26799,0 -3.76928,5.027084 h 7.74216 l 3.7698,-5.027084 z m 11.48405,0 -3.76979,5.027084 h 8.52609 l 3.7698,-5.027084 z m 12.26747,0 -3.76928,5.027084 h 9.20358 l 3.76927,-5.027084 z m 12.94495,0 -3.76928,5.027084 h 7.74216 l 3.76928,-5.027084 z m 11.48353,0 -3.76927,5.027084 h 8.52661 l 3.76928,-5.027084 z m 12.26799,0 -3.76928,5.027084 h 4.40955 v -5.027084 z"
       inkscape:label="Cuerda" /></g></svg>
