<?xml version="1.0" encoding="UTF-8" standalone="no"?>
<!-- Created with Inkscape (http://www.inkscape.org/) -->

<svg
   width="60"
   height="60"
   viewBox="0 0 15.875 15.875"
   version="1.1"
   id="svg1"
   xml:space="preserve"
   inkscape:version="1.3.2 (091e20e, 2023-11-25, custom)"
   sodipodi:docname="items.svg"
   inkscape:export-filename="..\Items\Doble_Bomba.svg"
   inkscape:export-xdpi="96"
   inkscape:export-ydpi="96"
   xmlns:inkscape="http://www.inkscape.org/namespaces/inkscape"
   xmlns:sodipodi="http://sodipodi.sourceforge.net/DTD/sodipodi-0.dtd"
   xmlns="http://www.w3.org/2000/svg"
   xmlns:svg="http://www.w3.org/2000/svg"><sodipodi:namedview
     id="namedview1"
     pagecolor="#ffffff"
     bordercolor="#000000"
     borderopacity="0.25"
     inkscape:showpageshadow="2"
     inkscape:pageopacity="0.0"
     inkscape:pagecheckerboard="0"
     inkscape:deskcolor="#d1d1d1"
     inkscape:document-units="mm"
     inkscape:zoom="5.6568543"
     inkscape:cx="18.915106"
     inkscape:cy="32.968854"
     inkscape:window-width="1366"
     inkscape:window-height="705"
     inkscape:window-x="-8"
     inkscape:window-y="-8"
     inkscape:window-maximized="1"
     inkscape:current-layer="svg1" /><defs
     id="defs1" /><g
     id="g165"
     inkscape:label="Items"
     style="display:inline"
     sodipodi:insensitive="true"><path
       id="path2-2"
       style="display:inline;fill:#42ded9;fill-opacity:1;fill-rule:evenodd;stroke-width:0.243435"
       inkscape:label="mega bomba"
       d="m 11.736526,0.67519442 a 1.0091918,0.38311911 36.784583 0 0 -0.199037,0.0732869 1.0091918,0.38311911 36.784583 0 0 -0.0086,0.0161802 L 11.527939,0.76418563 11.06811,1.3804617 A 7.2964587,7.2964587 0 0 0 7.9980411,0.70136831 7.2964587,7.2964587 0 0 0 0.70158242,7.998172 7.2964587,7.2964587 0 0 0 7.9980411,15.2945 7.2964587,7.2964587 0 0 0 15.2945,7.998172 7.2964587,7.2964587 0 0 0 12.765916,2.4778614 l 0.387149,-0.5196706 9.5e-4,-9.518e-4 a 1.0091918,0.38311911 36.784583 0 0 4.75e-4,-4.759e-4 1.0091918,0.38311911 36.784583 0 0 4.75e-4,-4.759e-4 1.0091918,0.38311911 36.784583 0 0 0,-4.759e-4 1.0091918,0.38311911 36.784583 0 0 4.75e-4,-4.759e-4 1.0091918,0.38311911 36.784583 0 0 4.75e-4,-4.759e-4 1.0091918,0.38311911 36.784583 0 0 4.75e-4,-4.758e-4 1.0091918,0.38311911 36.784583 0 0 0,-4.759e-4 1.0091918,0.38311911 36.784583 0 0 4.75e-4,-4.759e-4 1.0091918,0.38311911 36.784583 0 0 4.75e-4,-4.759e-4 1.0091918,0.38311911 36.784583 0 0 4.75e-4,-0.00143 1.0091918,0.38311911 36.784583 0 0 4.75e-4,-4.759e-4 1.0091918,0.38311911 36.784583 0 0 4.76e-4,-4.759e-4 1.0091918,0.38311911 36.784583 0 0 4.75e-4,-4.758e-4 1.0091918,0.38311911 36.784583 0 0 0,-4.759e-4 1.0091918,0.38311911 36.784583 0 0 4.75e-4,-4.759e-4 A 1.0091918,0.38311911 36.784583 0 0 12.574954,1.0459118 1.0091918,0.38311911 36.784583 0 0 11.736526,0.67519442 Z M 4.3479116,3.9340813 5.8950839,4.5874767 7.4693329,5.210891 c 0,0 -2.263891,0.5171053 -3.1214213,0 -0.8575301,-0.5171053 0,-1.2768097 0,-1.2768097 z m 7.4826704,0.013801 c 0,0 0.85753,0.7597046 0,1.2768098 -0.857531,0.5171054 -3.1214212,0 -3.1214212,0 L 10.28341,4.6008015 Z M 7.9624139,6.2369074 c 0.043879,-3.692e-4 0.088235,4.03e-4 0.1334834,0.00286 1.4479542,0.078477 2.1001067,1.2787134 2.1001067,1.2787134 l -2.1452346,0.00571 -2.1504602,0.049017 c 0,0 0.7018432,-1.3248497 2.0621047,-1.3362959 z"
       transform="matrix(1.0878565,0,0,1.0858929,-0.763221,-0.73318883)"
       sodipodi:insensitive="true" /></g></svg>
