<?xml version="1.0" encoding="UTF-8" standalone="no"?>
<!-- Created with Inkscape (http://www.inkscape.org/) -->

<svg
   width="1980"
   height="1260"
   viewBox="0 0 523.875 333.375"
   version="1.1"
   id="svg1"
   xml:space="preserve"
   inkscape:version="1.3.2 (091e20e, 2023-11-25, custom)"
   sodipodi:docname="Pantalla-Fondo.svg"
   inkscape:export-filename="..\..\ema\Mis Estudios\UNRAF\2do\Programacion\Bombastico\public\assets\MarcoMenus.svg"
   inkscape:export-xdpi="96"
   inkscape:export-ydpi="96"
   xmlns:inkscape="http://www.inkscape.org/namespaces/inkscape"
   xmlns:sodipodi="http://sodipodi.sourceforge.net/DTD/sodipodi-0.dtd"
   xmlns="http://www.w3.org/2000/svg"
   xmlns:svg="http://www.w3.org/2000/svg"><sodipodi:namedview
     id="namedview1"
     pagecolor="#ffffff"
     bordercolor="#000000"
     borderopacity="0.25"
     inkscape:showpageshadow="2"
     inkscape:pageopacity="0.0"
     inkscape:pagecheckerboard="0"
     inkscape:deskcolor="#d1d1d1"
     inkscape:document-units="mm"
     inkscape:zoom="0.1767767"
     inkscape:cx="873.98398"
     inkscape:cy="500.6316"
     inkscape:window-width="1366"
     inkscape:window-height="705"
     inkscape:window-x="-8"
     inkscape:window-y="-8"
     inkscape:window-maximized="1"
     inkscape:current-layer="g3"
     showgrid="false" /><defs
     id="defs1" /><g
     id="g16"
     inkscape:label="FIN"
     style="display:inline"><path
       id="rect17-5"
       style="display:inline;fill:#42ded9;fill-opacity:1;stroke:#191919;stroke-width:0"
       d="m 314.0604,233.53357 v 13.14477 h 88.52276 v -13.14477 z m 53.91102,1.65176 0.27197,0.0147 0.27124,0.0147 0.1968,0.0649 c 0.23316,0.0776 0.44956,0.21408 0.62798,0.39654 l 0.1305,0.13336 0.10098,0.21153 c 0.0556,0.11625 0.11596,0.28345 0.13422,0.37148 l 0.0331,0.15993 v 3.4701 3.4701 l -0.0331,0.16067 c -0.019,0.088 -0.0786,0.25521 -0.13422,0.37149 l -0.10098,0.21153 -0.1305,0.13265 c -0.17487,0.17863 -0.39087,0.31651 -0.62798,0.40096 l -0.1968,0.07 -14.79949,0.004 -5.0791,0.004 -0.18574,-0.0368 c -0.10184,-0.0222 -0.26269,-0.0767 -0.35748,-0.12166 l -0.17247,-0.0819 -0.19459,-0.18206 -0.19458,-0.18205 -0.1024,-0.21449 c -0.0561,-0.11795 -0.11668,-0.28716 -0.13493,-0.37517 l -0.0332,-0.15993 v -3.4701 -3.47083 l 0.0332,-0.15994 c 0.0188,-0.088 0.0789,-0.2564 0.13493,-0.37444 l 0.1024,-0.21449 0.19458,-0.18205 0.19459,-0.18278 0.17174,-0.0812 c 0.0943,-0.0448 0.26879,-0.10141 0.38769,-0.1268 l 0.21597,-0.0465 0.27197,0.0147 0.27198,0.0147 0.19606,0.0656 c 0.23317,0.0774 0.44953,0.21414 0.62797,0.39653 l 0.13051,0.13264 0.10098,0.21154 c 0.0556,0.11624 0.11596,0.28343 0.13421,0.37148 l 0.0332,0.15994 v 2.5355 2.5355 h 3.17748 12.8964 v -2.5355 -2.5355 l 0.0332,-0.15994 c 0.0188,-0.088 0.0789,-0.25637 0.13493,-0.37442 l 0.10169,-0.21523 0.19532,-0.18205 0.19459,-0.18206 0.17174,-0.081 c 0.0943,-0.0446 0.26808,-0.10141 0.38696,-0.1268 z" /><text
       xml:space="preserve"
       style="font-style:normal;font-variant:normal;font-weight:normal;font-stretch:normal;font-size:29.2965px;line-height:0.3;font-family:Impact;-inkscape-font-specification:Impact;text-align:center;text-anchor:middle;display:inline;fill:#40d7d1;fill-opacity:1;stroke:#191919;stroke-width:0"
       x="290.64102"
       y="102.311"
       id="text2-9-6-9-1-1-1"
       transform="scale(1.2326648,0.81125055)"><tspan
         sodipodi:role="line"
         id="tspan2-5-8-0-2-8-9"
         style="font-style:normal;font-variant:normal;font-weight:normal;font-stretch:normal;line-height:0.3;font-family:Impact;-inkscape-font-specification:Impact;fill:#40d7d1;fill-opacity:1;stroke-width:0"
         x="290.64102"
         y="102.311">¡SE ACABO!</tspan></text><text
       xml:space="preserve"
       style="font-style:normal;font-variant:normal;font-weight:normal;font-stretch:normal;font-size:11.7555px;line-height:0.3;font-family:Impact;-inkscape-font-specification:Impact;text-align:center;text-anchor:middle;display:inline;fill:#40d7d1;fill-opacity:1;stroke:#191919;stroke-width:0"
       x="290.97922"
       y="122.62109"
       id="text2-9-6-9-1-1-1-4"
       transform="scale(1.2326648,0.81125056)"><tspan
         sodipodi:role="line"
         id="tspan2-5-8-0-2-8-9-2"
         style="font-style:normal;font-variant:normal;font-weight:normal;font-stretch:normal;line-height:0.3;font-family:Impact;-inkscape-font-specification:Impact;fill:#40d7d1;fill-opacity:1;stroke-width:0"
         x="290.97922"
         y="122.62109">USTED SE QUEDO SIN MECHA</tspan></text><text
       xml:space="preserve"
       style="font-style:normal;font-variant:normal;font-weight:normal;font-stretch:normal;font-size:11.0635px;line-height:0.3;font-family:Impact;-inkscape-font-specification:Impact;text-align:center;text-anchor:middle;display:inline;fill:#40d7d1;fill-opacity:1;stroke:#191919;stroke-width:0"
       x="291.54523"
       y="168.37805"
       id="text2-9-6-9-1-1-1-7"
       transform="scale(1.2326648,0.81125055)"><tspan
         sodipodi:role="line"
         id="tspan2-5-8-0-2-8-9-22"
         style="font-style:normal;font-variant:normal;font-weight:normal;font-stretch:normal;line-height:0.3;font-family:Impact;-inkscape-font-specification:Impact;fill:#40d7d1;fill-opacity:1;stroke-width:0"
         x="291.54523"
         y="168.37805">POR FAVOR INTRODUZCA EL NOMBRRE DE </tspan><tspan
         sodipodi:role="line"
         style="font-style:normal;font-variant:normal;font-weight:normal;font-stretch:normal;line-height:0.3;font-family:Impact;-inkscape-font-specification:Impact;fill:#40d7d1;fill-opacity:1;stroke-width:0"
         x="291.54523"
         y="171.6971"
         id="tspan4" /><tspan
         sodipodi:role="line"
         style="font-style:normal;font-variant:normal;font-weight:normal;font-stretch:normal;line-height:0.3;font-family:Impact;-inkscape-font-specification:Impact;fill:#40d7d1;fill-opacity:1;stroke-width:0"
         x="291.54523"
         y="175.01616"
         id="tspan5" /><tspan
         sodipodi:role="line"
         style="font-style:normal;font-variant:normal;font-weight:normal;font-stretch:normal;line-height:0.3;font-family:Impact;-inkscape-font-specification:Impact;fill:#40d7d1;fill-opacity:1;stroke-width:0"
         x="291.54523"
         y="178.33521"
         id="tspan6" /><tspan
         sodipodi:role="line"
         style="font-style:normal;font-variant:normal;font-weight:normal;font-stretch:normal;line-height:0.3;font-family:Impact;-inkscape-font-specification:Impact;fill:#40d7d1;fill-opacity:1;stroke-width:0"
         x="291.54523"
         y="181.65425"
         id="tspan7">LA EMPRESA PARA LA QUE TRABAJA</tspan></text><text
       xml:space="preserve"
       style="font-style:normal;font-variant:normal;font-weight:normal;font-stretch:normal;font-size:11.0635px;line-height:0.3;font-family:Impact;-inkscape-font-specification:Impact;text-align:center;text-anchor:middle;display:none;fill:#40d7d1;fill-opacity:1;stroke:#191919;stroke-width:0"
       x="291.48099"
       y="312.4845"
       id="text2-9-6-9-1-1-1-7-0"
       transform="scale(1.2326648,0.81125055)"><tspan
         sodipodi:role="line"
         style="font-style:normal;font-variant:normal;font-weight:normal;font-stretch:normal;line-height:0.3;font-family:Impact;-inkscape-font-specification:Impact;fill:#40d7d1;fill-opacity:1;stroke-width:0"
         x="0"
         y="0"
         id="tspan7-0">ENVIAR</tspan></text><path
       style="display:none;fill:#42ded9;fill-opacity:1;stroke-width:0.999997"
       d="m 246.50359,196.71399 v -7.00288 l 6.9827,3.49522 c 3.84049,1.92237 6.98272,3.50092 6.98274,3.50787 1e-5,0.007 -3.1422,1.58541 -6.98272,3.50767 l -6.98272,3.49501 z"
       id="path11-3-1-2" /><rect
       style="display:none;fill:#40d7d1;fill-opacity:1;stroke:#191919;stroke-width:0"
       id="rect11"
       width="40.919781"
       height="3.716882"
       x="-446.42072"
       y="205.92648"
       transform="scale(-1,1)" /><rect
       style="display:none;fill:#40d7d1;fill-opacity:1;stroke:#191919;stroke-width:0"
       id="rect11-8"
       width="40.919781"
       height="3.716882"
       x="-400.64291"
       y="205.92632"
       transform="scale(-1,1)" /><rect
       style="display:none;fill:#40d7d1;fill-opacity:1;stroke:#191919;stroke-width:0"
       id="rect11-0"
       width="40.919781"
       height="3.716882"
       x="-309.00653"
       y="205.92632"
       transform="scale(-1,1)" /><rect
       style="display:none;fill:#40d7d1;fill-opacity:1;stroke:#191919;stroke-width:0"
       id="rect11-1"
       width="40.919781"
       height="3.716882"
       x="-354.87268"
       y="205.92632"
       transform="scale(-1,1)" /></g></svg>
